<?xml version="1.0" encoding="utf-8"?>
<!-- Generator: Adobe Illustrator 26.0.3, SVG Export Plug-In . SVG Version: 6.00 Build 0)  -->
<svg version="1.1" id="Layer_1" xmlns="http://www.w3.org/2000/svg" xmlns:xlink="http://www.w3.org/1999/xlink" x="0px" y="0px"
	 viewBox="0 0 500 500" style="enable-background:new 0 0 500 500;" xml:space="preserve">
<style type="text/css">
	.st0{fill:#4363A4;}
	.st1{fill:#90C7DB;}
</style>
<g>
	<path class="st0" d="M344,268.8H156c-10.4,0-18.8-8.4-18.8-18.8c0-10.4,8.4-18.8,18.8-18.8h188c10.4,0,18.8,8.4,18.8,18.8
		S354.4,268.8,344,268.8z"/>
	<path class="st1" d="M250,62C146.2,62,62,146.2,62,250c0,43.4,15,85.4,42.4,119l-36.9,36.9c-7.3,7.3-7.3,19.2,0,26.6
		c3.5,3.5,8.3,5.5,13.3,5.5H250c103.8,0,188-84.2,188-188S353.8,62,250,62z M193.6,156h112.8c10.4,0,18.8,8.4,18.8,18.8
		c0,10.4-8.4,18.8-18.8,18.8H193.6c-10.4,0-18.8-8.4-18.8-18.8C174.8,164.4,183.2,156,193.6,156z M306.4,344H193.6
		c-10.4,0-18.8-8.4-18.8-18.8s8.4-18.8,18.8-18.8h112.8c10.4,0,18.8,8.4,18.8,18.8S316.8,344,306.4,344z M344,268.8H156
		c-10.4,0-18.8-8.4-18.8-18.8c0-10.4,8.4-18.8,18.8-18.8h188c10.4,0,18.8,8.4,18.8,18.8S354.4,268.8,344,268.8z"/>
	<path class="st0" d="M306.4,344H193.6c-10.4,0-18.8-8.4-18.8-18.8s8.4-18.8,18.8-18.8h112.8c10.4,0,18.8,8.4,18.8,18.8
		S316.8,344,306.4,344z M306.4,193.6H193.6c-10.4,0-18.8-8.4-18.8-18.8c0-10.4,8.4-18.8,18.8-18.8h112.8c10.4,0,18.8,8.4,18.8,18.8
		C325.2,185.2,316.8,193.6,306.4,193.6z"/>
</g>
</svg>
