<?xml version="1.0" encoding="utf-8"?>
<!-- Generator: Adobe Illustrator 26.0.3, SVG Export Plug-In . SVG Version: 6.00 Build 0)  -->
<svg version="1.1" id="Layer_1" xmlns="http://www.w3.org/2000/svg" xmlns:xlink="http://www.w3.org/1999/xlink" x="0px" y="0px"
	 viewBox="0 0 500 500" style="enable-background:new 0 0 500 500;" xml:space="preserve">
<style type="text/css">
	.st0{fill:#53AD66;stroke:#53AD66;stroke-width:4;stroke-miterlimit:10;}
	.st1{fill-rule:evenodd;clip-rule:evenodd;fill:#E9EF78;stroke:#E9EF78;stroke-width:4;stroke-miterlimit:10;}
	.st2{fill-rule:evenodd;clip-rule:evenodd;fill:#1E1E1E;}
</style>
<path class="st0" d="M472.1,95.7c4.4,0,8-3.7,8-8.2c0-15.6-12.6-28.2-28.2-28.3c-15.6,0-28.2,12.6-28.2,28.2v0.1v26
	c-6.1-1.6-12.5-2.5-18.9-2.5c-6.5,0-12.7,0.9-18.7,2.5v-26c0-15.6-12.7-28.3-28.3-28.3c-15.6,0-28.2,12.6-28.2,28.2v0.1
	c0,4.5,3.7,8.2,8.2,8.2s8.1-3.7,8.1-8.2c0-6.5,5.2-11.9,11.8-11.9c0,0,0,0,0.1,0c6.6,0,11.9,5.3,11.9,11.9v32.6
	c-22.2,12.4-37.2,36-37.2,63.3c0,13.9,4,27.6,11.6,39.2V271c0,21.9-17.7,39.7-39.5,39.7c0,0-0.1,0-0.2,0H83.3
	c-35.2,0-63.7,28.5-63.7,63.6c1.5,31.2,26.3,55.8,56.9,57.8c0.8,6.8,4.3,11.9,8.5,11.9c4.2,0,7.8-5.1,8.5-11.8h49.2
	c0.8,6.7,4.3,11.8,8.5,11.8s7.8-5.1,8.5-11.8h27.7c0.8,6.7,4.3,11.8,8.5,11.8s7.8-5.1,8.5-11.8H252c0.8,6.7,4.3,11.8,8.5,11.8
	s7.8-5.1,8.5-11.8h28.4c0.8,6.7,4.3,11.8,8.5,11.8s7.8-5.1,8.5-11.8h17.5c0.8,6.7,4.3,11.8,8.5,11.8s7.8-5.1,8.5-11.8h1.1
	c6.8,0,13.5-0.6,20-1.7c0.3,7.6,4.1,13.5,8.7,13.5c4.8,0,8.7-6.5,8.7-14.6c0-1.1-0.1-2.2-0.2-3.3c45.6-15.5,78.3-58.6,78.3-109.4
	v-94.2c21.7-33.6,12-78.4-21.6-100.1c-1.3-0.8-2.6-1.6-4-2.3V87.5c0-6.5,5.2-11.9,11.8-11.9c0,0,0,0,0.1,0c6.5,0,11.9,5.3,11.9,11.8
	v0.1C463.9,92,467.6,95.7,472.1,95.7z"/>
<path class="st1" d="M334.6,294.2c0,0,51.1,49.5,135.1,1.1c3.9-2.3,5.3-7.3,3-11.2c-2.3-3.9-7.3-5.3-11.2-3
	c-71.9,41.5-115.7,1.1-115.7,1.1c-3.2-3.2-8.3-3.2-11.5,0s-3.2,8.4-0.1,11.6C334.3,293.9,334.5,294,334.6,294.2z M307.8,307.6
	c0,0-11,59,21.6,94.5c14.1,15.4,36.3,26.7,71.2,26.7c4.5,0,8.2-3.7,8.2-8.2s-3.7-8.2-8.2-8.2c-28.8,0-47.4-8.7-59.2-21.4
	c-27.7-30.1-17.6-80.4-17.6-80.4c0.8-4.5-2.1-8.9-6.7-9.7s-8.9,2.1-9.7,6.7H307.8z M219.3,304.7c-12.9,13.3-20.9,30.6-22.6,49
	c-2.4,20.8,1.3,48.3,20.9,82.3c2.3,3.9,7.3,5.3,11.2,3s5.3-7.3,3-11.2c-17.3-29.9-21-54-18.9-72.3c1.2-14.6,7.3-28.3,17.2-39.1
	c3.2-3.2,3.1-8.4-0.1-11.6c-2.9-2.9-7.6-3.1-10.8-0.5L219.3,304.7L219.3,304.7z M108.2,304.7c-12.9,13.3-20.9,30.6-22.5,49
	C83.3,374.5,87,402,106.6,436c2.3,3.9,7.3,5.2,11.2,3l0,0c3.9-2.3,5.2-7.2,2.9-11.1c-17.2-29.9-20.9-54-18.9-72.3
	c1.3-14.6,7.4-28.3,17.3-39.1c3.5-2.8,4.1-8,1.2-11.5s-8-4.1-11.5-1.2c-0.2,0.2-0.5,0.4-0.7,0.6L108.2,304.7L108.2,304.7z"/>
<path class="st2" d="M373,163.6v14.1c0,4.5,3.7,8.2,8.2,8.2s8.2-3.7,8.2-8.2v-14.1c0-4.5-3.7-8.2-8.2-8.2S373,159.1,373,163.6z
	 M418,163.6v14.1c0,4.5,3.7,8.2,8.2,8.2s8.2-3.7,8.2-8.2v-14.1c0-4.5-3.7-8.2-8.2-8.2S418,159.1,418,163.6z"/>
</svg>
