<?xml version="1.0" encoding="utf-8"?>
<!-- Generator: Adobe Illustrator 26.0.3, SVG Export Plug-In . SVG Version: 6.00 Build 0)  -->
<svg version="1.1" id="Layer_1" xmlns="http://www.w3.org/2000/svg" xmlns:xlink="http://www.w3.org/1999/xlink" x="0px" y="0px"
	 viewBox="0 0 500 500" style="enable-background:new 0 0 500 500;" xml:space="preserve">
<style type="text/css">
	.st0{fill:#FCBE42;}
	.st1{fill:#8F939E;}
	.st2{fill:#EA493D;}
	.st3{fill:#F9D178;}
</style>
<path class="st0" d="M369.6,235.2c0,115.5-66.4,102.7-66.4,167H196.8c0-64.2-66.4-51.4-66.4-167S250,119.6,250,119.6
	S369.6,119.6,369.6,235.2z"/>
<rect x="195.6" y="402.2" class="st1" width="108.7" height="32.6"/>
<rect x="195.6" y="434.8" class="st0" width="108.7" height="32.6"/>
<polygon class="st1" points="271.7,500 228.3,500 195.6,467.4 304.4,467.4 "/>
<path class="st2" d="M232.2,315.2h-1.7c-3.9-0.6-7.1-3.3-8.5-7.1l-16.7-46l-11.6,16.1L176,265.4l23.7-32.6c2.4-3.2,6.3-4.9,10.3-4.3
	c4,0.6,7.3,3.3,8.7,7.1l17.2,47.1l23.5-28.7c1.9-2.4,4.7-3.8,7.7-4s5.9,0.8,8,2.8l18.4,17l17.2-7.8l9.1,19.8l-23.7,10.9
	c-4,1.9-8.7,1.1-12-1.9l-15.2-14l-28.3,34.6C238.6,313.7,235.5,315.2,232.2,315.2z"/>
<rect x="239.1" y="337" class="st1" width="21.7" height="65.2"/>
<rect x="10.9" y="228.3" class="st3" width="54.4" height="21.7"/>
<rect x="434.8" y="228.3" class="st3" width="54.4" height="21.7"/>
<rect x="68.1" y="382.9" transform="matrix(0.7071 -0.7071 0.7071 0.7071 -250.4697 182.7312)" class="st3" width="54.4" height="21.7"/>
<rect x="377.5" y="73.6" transform="matrix(0.7071 -0.7071 0.7071 0.7071 58.8142 310.8792)" class="st3" width="54.4" height="21.7"/>
<rect x="84.4" y="57.2" transform="matrix(0.7071 -0.7071 0.7071 0.7071 -31.8023 92.0821)" class="st3" width="21.7" height="54.4"/>
<rect x="393.7" y="366.7" transform="matrix(0.7071 -0.7071 0.7071 0.7071 -160.0499 401.4594)" class="st3" width="21.7" height="54.4"/>
<rect x="239.1" class="st3" width="21.7" height="54.4"/>
</svg>
